<svg xmlns="http://www.w3.org/2000/svg" viewBox="0 0 355 435" width="355" height="435" font-family="Helvetica Neue, Helvetica, Arial, sans-serif">
<rect width="355" height="435" fill="#F8EFDE"/>
<line x1="40.0" y1="94.0" x2="334.8" y2="94.0" stroke="#9A968C" stroke-width="0.9" opacity="0.8"/>
<line x1="86.0" y1="94.0" x2="86.0" y2="415.0" stroke="#9A968C" stroke-width="0.9" opacity="0.6"/>
<line x1="214.4" y1="94.0" x2="214.4" y2="335.0" stroke="#9A968C" stroke-width="0.9" opacity="0.4"/>
<polygon points="86.0,132.0 214.4,132.0 214.4,301.0 86.0,301.0" fill="#FBF6EC" stroke="#3A3A38" stroke-width="3.4" stroke-linejoin="miter"/>
<line x1="122.4" y1="301.0" x2="179.6" y2="301.0" stroke="#FBF6EC" stroke-width="7.5"/>
<line x1="122.4" y1="301.0" x2="179.6" y2="301.0" stroke="#6C903C" stroke-width="4.8"/>
<line x1="214.4" y1="280.2" x2="214.4" y2="243.8" stroke="#FBF6EC" stroke-width="7.5"/>
<path d="M 214.4 280.2 A 36.4 36.4 0 0 0 250.8 243.8" fill="none" stroke="#9A968C" stroke-width="1.1" stroke-dasharray="3.5 3.5"/>
<line x1="214.4" y1="243.8" x2="250.8" y2="243.8" stroke="#9A968C" stroke-width="1.6"/>
<text x="92.0" y="122.0" font-size="11.5" fill="#9A968C" letter-spacing="1.4">2470 mm</text>
<text x="227.4" y="140.0" font-size="11.5" fill="#9A968C" letter-spacing="1.4" transform="rotate(90 227.4 140.0)">3250 mm</text>
<text x="150.2" y="225.5" font-size="27" fill="#3A3A38" text-anchor="middle" font-weight="300" letter-spacing="1.2">8 m²</text>
<text x="86.0" y="54.0" font-size="17" fill="#3A3A38" font-weight="600" letter-spacing="2.4">OFFICE 2</text>
<text x="86.0" y="72.0" font-size="10.5" fill="#9A968C" letter-spacing="1.8">THE YARD</text>
<text x="92.0" y="351.0" font-size="10.5" fill="#6C903C" letter-spacing="1.2">PRIVATE OFFICE</text>
</svg>